<svg width="26" height="27" viewBox="0 0 26 27" fill="none" xmlns="http://www.w3.org/2000/svg">
<circle cx="13" cy="13.5" r="13" fill="#301D08"/>
<path d="M5 6.5H8.07157L10.0058 13.5H16.7853L18.7769 7.60409L20 8.00691L17.7144 14.7727H10.0161L9.69375 16.0455H19.1844V17.3182H8.0432L8.84655 14.1434L7.0864 7.77273H5V6.5ZM14.0264 7.13636V9.04545H15.9607V10.3182H14.0264V12.2273H12.7369V10.3182H10.8027V9.04545H12.7369V7.13636H14.0264ZM7.57898 19.2273C7.57898 18.8897 7.71484 18.566 7.95666 18.3273C8.19849 18.0886 8.52648 17.9545 8.86847 17.9545C9.21047 17.9545 9.53845 18.0886 9.78028 18.3273C10.0221 18.566 10.158 18.8897 10.158 19.2273C10.158 19.5648 10.0221 19.8885 9.78028 20.1272C9.53845 20.3659 9.21047 20.5 8.86847 20.5C8.52648 20.5 8.19849 20.3659 7.95666 20.1272C7.71484 19.8885 7.57898 19.5648 7.57898 19.2273ZM16.6054 19.2273C16.6054 18.8897 16.7413 18.566 16.9831 18.3273C17.2249 18.0886 17.5529 17.9545 17.8949 17.9545C18.2369 17.9545 18.5649 18.0886 18.8067 18.3273C19.0485 18.566 19.1844 18.8897 19.1844 19.2273C19.1844 19.5648 19.0485 19.8885 18.8067 20.1272C18.5649 20.3659 18.2369 20.5 17.8949 20.5C17.5529 20.5 17.2249 20.3659 16.9831 20.1272C16.7413 19.8885 16.6054 19.5648 16.6054 19.2273Z" fill="#D3BFA8"/>
</svg>
