<svg width="360" height="102" viewBox="0 0 360 102" fill="none" xmlns="http://www.w3.org/2000/svg">
<path d="M0 83.5339C10.9095 89.096 21.8176 94.657 32.727 92.8154C43.6365 90.9738 54.5459 81.7286 65.4541 76.3149C76.3635 70.9012 87.273 69.3181 98.1824 67.0334C109.091 64.7487 120 61.7625 130.909 61.877C141.818 61.9914 152.727 65.2054 163.636 76.3149C174.546 87.4244 185.454 106.431 196.364 101.066C207.273 95.7007 218.182 65.9658 229.091 62.9082C240 59.8507 250.909 83.4693 261.818 84.5652C272.727 85.661 283.637 64.2342 294.546 64.9708C305.454 65.7074 316.364 88.6064 327.273 91.7841C338.182 94.9619 349.091 78.4194 360 61.877V7.62939e-06C349.091 7.62939e-06 338.182 7.62939e-06 327.273 7.62939e-06C316.364 7.62939e-06 305.454 7.62939e-06 294.546 7.62939e-06C283.637 7.62939e-06 272.727 7.62939e-06 261.818 7.62939e-06C250.909 7.62939e-06 240 7.62939e-06 229.091 7.62939e-06C218.182 7.62939e-06 207.273 7.62939e-06 196.364 7.62939e-06C185.454 7.62939e-06 174.546 7.62939e-06 163.636 7.62939e-06C152.727 7.62939e-06 141.818 7.62939e-06 130.909 7.62939e-06C120 7.62939e-06 109.091 7.62939e-06 98.1824 7.62939e-06C87.273 7.62939e-06 76.3635 7.62939e-06 65.4541 7.62939e-06C54.5459 7.62939e-06 43.6365 7.62939e-06 32.727 7.62939e-06C21.8176 7.62939e-06 10.9095 7.62939e-06 0 7.62939e-06V83.5339Z" fill="#B29378"/>
</svg>
